# xmcd CD database file
#
# Track frame offsets:
#	150
#	12355
#	22482
#	35757
#	44995
#	56115
#	67002
#	78332
#	88337
#	100537
#	110665
#	123950
#	133215
#	144390
#	155250
#	166560
#
# Disc length: 2351 seconds
#
# Revision: 0
# Processed by: cddbd v1.5.1PL2 Copyright (c) Steve Scherf et al.
# Submitted via: CDex 1.51
#
DISCID=e5092d10
DTITLE=Patsy Cline - Sing the Hits of Patsy Cline Volume 1
DYEAR=1993
DGENRE=Country
TTITLE0=Crazy
TTITLE1=Seven Lonely Days
TTITLE2=I Fall to Pieces
TTITLE3=Blue Moon of Kentucky
TTITLE4=Half As Much
TTITLE5=San Antonio Rose
TTITLE6=Leavin' On Your Mind
TTITLE7=Foolin' Around
TTITLE8=Crazy (with vocals)
TTITLE9=Seven Lonely Days (with vocals)
TTITLE10=I Fall to Pieces (with vocals)
TTITLE11=Blue Moon of Kentucky (with vocals)
TTITLE12=Half As Much (with vocals)
TTITLE13=San Antonio Rose (with vocals)
TTITLE14=Leavin' On Your Mind (with vocals)
TTITLE15=Foolin' Around (with vocals)
EXTD=YEAR: 1993
EXTT0=
EXTT1=
EXTT2=
EXTT3=
EXTT4=
EXTT5=
EXTT6=
EXTT7=
EXTT8=
EXTT9=
EXTT10=
EXTT11=
EXTT12=
EXTT13=
EXTT14=
EXTT15=
PLAYORDER=
